# xmcd
#
# Track frame offsets:
# 150
# 19327
# 33815
# 53177
# 66192
# 88335
# 109097
# 118127
# 137722
# 145827
# 156777
#
# Disc length: 2274 seconds
#
#
# Revision: 0
# Processed by: cddbd v1.5.2PL0 Copyright (c) Steve Scherf et al.
# Submitted via: FreeRIP 2.944 
#
DISCID=9a08e00b
DTITLE=Joan Baez - Live in Europe
DYEAR=1999
DGENRE=
TTITLE0=The Boxer
TTITLE1=Don't cry for me Argentina
TTITLE2=Gracias a la Vida (Here's to Lifi)
TTITLE3=The Rose
TTITLE4=For Sasha
TTITLE5=Diamonds and Rust
TTITLE6=Soyuz Druzyei (Circle of friends)
TTITLE7=Cambodia
TTITLE8=Kinder (Sind so kleine Hände)
TTITLE9=Here's to you
TTITLE10=Blowin' in the wind
EXTD=
EXTT0=
EXTT1=
EXTT2=
EXTT3=
EXTT4=
EXTT5=
EXTT6=
EXTT7=
EXTT8=
EXTT9=
EXTT10=
PLAYORDER=
